inDegrees=yes
name=ik_S53_A12_T02
DataType=double
version=3
OpenSimVersion=4.3-2021-08-27-4bc7ad9
endheader
time	pelvis_tilt	pelvis_list	pelvis_rotation	pelvis_tx	pelvis_ty	pelvis_tz	hip_flexion_r	hip_adduction_r	hip_rotation_r	knee_angle_r	knee_angle_r_beta	ankle_angle_r	subtalar_angle_r	mtp_angle_r	hip_flexion_l	hip_adduction_l	hip_rotation_l	knee_angle_l	knee_angle_l_beta	ankle_angle_l	subtalar_angle_l	mtp_angle_l	lumbar_extension	lumbar_bending	lumbar_rotation	arm_flex_r	arm_add_r	arm_rot_r	elbow_flex_r	pro_sup_r	wrist_flex_r	wrist_dev_r	arm_flex_l	arm_add_l	arm_rot_l	elbow_flex_l	pro_sup_l	wrist_flex_l	wrist_dev_l
0	0	0	0	0	0.9399999999999999	0	0	0	0	0	0	0	0	0	0	0	0	0	0	0	0	0	0	0	0	0	0	0	0	89.99999999963507	0	0	0	0	0	0	89.99999999869995	0	0
0.01666666666666667	-1.470062307916082	-2.614757842006118	29.44412043822013	0	0.9399999999999999	0	1.536593356061558	-0.726549325494236	-0.5163273735255466	2.395574647995347	0.04181066508482297	0	0	0	1.536593356061558	-0.726549325494236	-0.5163273735255466	2.395574647995347	0.04181066508482297	0	0	0	-1.994728453768703	-0.2867462249867123	12.66021124653178	17.81932792000844	-8.151382906757798	-0.3101190662982407	4.8142089408267	133.8431998267625	0	0	15.12721729858446	-11.40334101755293	-2.709078571329867	7.530624630505311	107.2484632360486	0	0
0.03333333333333333	-1.476270622505919	-2.611470753901717	29.48646702247903	0	0.9399999999999999	0	1.849624080854188	-0.8694858973093587	-0.6310802632371891	2.606496312718562	0.04549194259803066	0	0	0	1.849624080854188	-0.8694858973093587	-0.6310802632371891	2.606496312718562	0.04549194259803066	0	0	0	-1.999293054890314	-0.290052052781738	12.62664422720226	17.82617479066842	-8.156870389992847	-0.3110148918504203	4.804302676271212	133.8404621520021	0	0	15.086017814986	-11.40313756433441	-2.718067682499931	7.591013054974121	107.2359707388762	0	0
0.05	-1.485179951350611	-2.584643145007731	29.56988170831329	0	0.9399999999999999	0	2.876393014439281	-1.350853059366583	-0.9950236695777686	3.652260579382767	0.06374397225102502	0	0	0	2.876393014439281	-1.350853059366583	-0.9950236695777686	3.652260579382767	0.06374397225102502	0	0	0	-1.987977160714431	-0.3102531649177633	12.53538569961924	17.78170801299717	-8.152753277726706	-0.2942410514891008	4.812054898366639	133.8515260308872	0	0	15.05639377886969	-11.41949429980289	-2.732006743340995	7.579099376224552	107.2549408424783	0	0
0.06666666666666667	-1.521795550845111	-2.585793942255466	29.65051912467399	0	0.9399999999999999	0	3.794269297501817	-1.777277441784719	-1.316079317349619	4.627750632957246	0.08076948550635556	0	0	0	3.794269297501817	-1.777277441784719	-1.316079317349619	4.627750632957246	0.08076948550635556	0	0	0	-2.013562935754179	-0.3385290705210508	12.45493962321816	17.85651576117886	-8.143218730519568	-0.3030270390259008	4.746010934698536	133.8849218748273	0	0	15.13001032875944	-11.43400612546413	-2.779792646493169	7.53787004305152	107.3210895309163	0	0
0.08333333333333333	-1.522287806685608	-2.576590803937473	29.78351153940924	0	0.9399999999999999	0	4.842338314234778	-2.24170950786584	-1.681937539947153	5.668050210707447	0.09892613834520331	0	0	0	4.842338314234778	-2.24170950786584	-1.681937539947153	5.668050210707447	0.09892613834520331	0	0	0	-2.021346033834931	-0.3409162316855864	12.30568413456649	17.8050698471102	-8.157192369292597	-0.3024653004193456	4.81467746727426	133.8874671438852	0	0	15.10003507241758	-11.44402060105971	-2.76334094656322	7.521326147987192	107.2970225304273	0	0
0.09999999999999999	-1.543893217094152	-2.600974034280988	29.79569344214687	0	0.9399999999999999	0	4.891719385812968	-2.267126117460641	-1.699126355239404	5.73231263087415	0.1000477291624123	0	0	0	4.891719385812968	-2.267126117460641	-1.699126355239404	5.73231263087415	0.1000477291624123	0	0	0	-2.052609366384532	-0.3519384583555359	12.3027479567878	17.83894483381683	-8.146541234163358	-0.2698831390698848	4.82255553293129	133.8518824369069	0	0	15.13576849628687	-11.44717415142203	-2.72477266785469	7.540701754022821	107.2743306673423	0	0
0.1166666666666667	-1.555418348711469	-2.608583231314088	29.8817574986575	0	0.9399999999999999	0	5.634032460402319	-2.589151869791947	-1.954422381863805	6.484534496999099	0.1131764774317886	0	0	0	5.634032460402319	-2.589151869791947	-1.954422381863805	6.484534496999099	0.1131764774317886	0	0	0	-2.075221033486983	-0.3595321632106189	12.20495850992272	17.89828371788934	-8.142199855260722	-0.290644434695196	4.765908195343354	133.9137630998445	0	0	15.17460231981994	-11.45501907590577	-2.730206266589128	7.508402124251368	107.2810651134848	0	0
0.1333333333333333	-1.551543033581132	-2.606336859142284	29.89232860875203	0	0.9399999999999999	0	5.715321200966301	-2.624955777763134	-1.982422435497851	6.567955735554944	0.1146324527106798	0	0	0	5.715321200966301	-2.624955777763134	-1.982422435497851	6.567955735554944	0.1146324527106798	0	0	0	-2.071260970274778	-0.361331808799568	12.1944005132768	17.86023937248338	-8.112479548200161	-0.2459690377934101	4.77111226342745	133.8498014347933	0	0	15.1396498806459	-11.44430323828237	-2.715440128741337	7.521308690716868	107.2785688785981	0	0
0.15	-1.548969901847414	-2.597413937538986	29.9262147799765	0	0.9399999999999999	0	6.515593804844804	-2.988485710464868	-2.254963911609524	7.503424158573966	0.1309594567408008	0	0	0	6.515593804844804	-2.988485710464868	-2.254963911609524	7.503424158573966	0.1309594567408008	0	0	0	-2.074361122931632	-0.3608132301239393	12.11644853817261	17.8423435465075	-8.096677692437064	-0.2121488675570434	4.782218745055591	133.8568537102014	0	0	15.11667243400228	-11.44641886507111	-2.774355614556624	7.522342378939654	107.3185326829052	0	0
0.1666666666666667	-1.563743874397846	-2.589390857505758	29.96384165593618	0	0.9399999999999999	0	7.243408624429368	-3.313428571026913	-2.501647258265761	8.347727895127944	0.1456953368305585	0	0	0	7.243408624429368	-3.313428571026913	-2.501647258265761	8.347727895127944	0.1456953368305585	0	0	0	-2.084615900178515	-0.3672035692597319	12.05609426379824	17.86527438947758	-8.098145835034686	-0.2550824635879483	4.778391195602923	133.9406221957111	0	0	15.1294199681531	-11.4381579887148	-2.800254053016359	7.511760077928225	107.3358552598678	0	0
0.1833333333333333	-1.569498300676612	-2.586507055902987	29.97830171752756	0	0.9399999999999999	0	7.505198264150406	-3.41989224817382	-2.589522569684029	8.614866813555537	0.1503577905173366	0	0	0	7.505198264150406	-3.41989224817382	-2.589522569684029	8.614866813555537	0.1503577905173366	0	0	0	-2.087137972440136	-0.3726652443247345	12.03635708589503	17.81869676152371	-8.104892920110307	-0.2470719606864866	4.862424798945363	133.8607455567893	0	0	15.10227808830548	-11.44147233550112	-2.787022666514647	7.595581134935081	107.2800066416796	0	0
0.2	-1.556491290607851	-2.558196050456072	29.96613036106413	0	0.9399999999999999	0	7.712080760241458	-3.501331937295547	-2.658612675542407	8.818902477370285	0.1539188846423962	0	0	0	7.712080760241458	-3.501331937295547	-2.658612675542407	8.818902477370285	0.1539188846423962	0	0	0	-2.063206213867522	-0.3572499012581807	12.01824416290481	17.80395754036049	-8.100606335711115	-0.280884982735179	4.792553135616783	133.9527391757447	0	0	15.08648645672703	-11.41473847760891	-2.800242752673363	7.510615028534908	107.2678523419739	0	0
0.2166666666666666	-1.568534319340849	-2.548300012925159	29.96252428935131	0	0.9399999999999999	0	7.937206152035915	-3.590383879202998	-2.733672031699113	9.04449032548694	0.1578561353445207	0	0	0	7.937206152035915	-3.590383879202998	-2.733672031699113	9.04449032548694	0.1578561353445207	0	0	0	-2.068404651433099	-0.3513529623330996	11.99742236824282	17.80963088644562	-8.117386782218706	-0.3497860972197799	4.798468059214144	133.9946528814108	0	0	15.09240292351432	-11.383145274833	-2.831219132181354	7.549527326515046	107.2303344651502	0	0
0.2333333333333333	-1.585505188223698	-2.548869659944483	29.95913712259866	0	0.9399999999999999	0	8.200139805485735	-3.695214911245199	-2.821132544379049	9.315177714735769	0.1625805215305403	0	0	0	8.200139805485735	-3.695214911245199	-2.821132544379049	9.315177714735769	0.1625805215305403	0	0	0	-2.08359134548896	-0.352827709308596	11.96740198500151	17.80352681643629	-8.128261616738147	-0.3551547465045431	4.872821400637574	133.9549597436176	0	0	15.06581417248584	-11.35244669365644	-2.85725231713612	7.664823499832607	107.1361522245353	0	0
0.25	-1.596192377255945	-2.538885051210876	29.93757820677648	0	0.9399999999999999	0	8.208037958396307	-3.698852252952563	-2.823800121141176	9.325042007587808	0.1627526859191893	0	0	0	8.208037958396307	-3.698852252952563	-2.823800121141176	9.325042007587808	0.1627526859191893	0	0	0	-2.089426056335964	-0.3367321537806822	11.92805540723828	17.85232441127029	-8.129395318866472	-0.3244386096143062	4.812560554067133	134.0400830321859	0	0	15.09308423928064	-11.27953559301158	-2.900001262243145	7.696115905072066	106.9324566000293	0	0
0.2666666666666667	-1.625694950891883	-2.54701444545169	29.91117649011934	0	0.9399999999999999	0	8.218439022468214	-3.703669270790475	-2.827321452853795	9.337996907328534	0.1629787915739307	0	0	0	8.218439022468214	-3.703669270790475	-2.827321452853795	9.337996907328534	0.1629787915739307	0	0	0	-2.121229500977677	-0.3260661647608019	11.87298421085425	17.9283873766103	-8.138180474634195	-0.255745363754991	4.800221407761772	134.0298518442895	0	0	15.12776737642253	-11.19984551467175	-2.980436265517018	7.925782168237155	106.5979603024914	0	0
0.2833333333333333	-1.641310679845901	-2.548357813445514	29.91440749262851	0	0.9399999999999999	0	8.22786587510006	-3.70801359830133	-2.830506791027091	9.349756102980484	0.1631840282554435	0	0	0	8.22786587510006	-3.70801359830133	-2.830506791027091	9.349756102980484	0.1631840282554435	0	0	0	-2.136940810646051	-0.3174059383243713	11.83457012964091	17.98456549357516	-8.146675313717523	-0.2034713533490136	4.808249846864231	134.0079152942328	0	0	15.11688076329582	-11.17423709890176	-2.835406417879594	8.305564648922159	105.9786469308118	0	0
0.3	-1.664376876360466	-2.560008262631044	29.93430764728775	0	0.9399999999999999	0	8.237311886855906	-3.7123959080035	-2.833707668306519	9.361501654598312	0.1633890268036375	0	0	0	8.237311886855906	-3.7123959080035	-2.833707668306519	9.361501654598312	0.1633890268036375	0	0	0	-2.165435809309583	-0.3121819842432903	11.76417820802102	18.0518775084204	-8.160897617999431	-0.1844690561054259	4.829457809015478	134.0200525310715	0	0	15.17644171217306	-11.14279869134992	-2.886376282082725	8.783226367404943	105.3038525856338	0	0
0.3166666666666667	-1.688758244980219	-2.573071457479707	29.95476947525428	0	0.9399999999999999	0	8.246643115984257	-3.716726989878642	-2.836870516220233	9.373096936311139	0.1635914026472226	0	0	0	8.246643115984257	-3.716726989878642	-2.836870516220233	9.373096936311139	0.1635914026472226	0	0	0	-2.196603360467729	-0.3061996756087761	11.67079167824278	18.13073511222652	-8.173895532883659	-0.1807944547052578	4.866546256577916	134.0629798693789	0	0	15.2709521441829	-11.15045471399103	-3.025367718013232	9.370276369461193	104.5168667301991	0	0
0.3333333333333333	-1.692376240209291	-2.566494939120958	30.0042335563894	0	0.9399999999999999	0	8.260792752307582	-3.723313385949505	-2.841672741173026	9.390648798826769	0.1638977404379777	0	0	0	8.260792752307582	-3.723313385949505	-2.841672741173026	9.390648798826769	0.1638977404379777	0	0	0	-2.199617032322215	-0.293937996622559	11.59184687413708	18.17234980505702	-8.182918656774474	-0.1978779949441211	4.833540356215722	134.060921662399	0	0	15.31254406341483	-11.24827262225367	-3.108859263334308	10.14247329519909	103.6201697814512	0	0
0.35	-1.702127765158586	-2.581447541517255	30.01492190177439	0	0.9399999999999999	0	8.272213325718006	-3.728603550074916	-2.845541334179798	9.404835512670665	0.164145345304592	0	0	0	8.272213325718006	-3.728603550074916	-2.845541334179798	9.404835512670665	0.164145345304592	0	0	0	-2.217023933520412	-0.2999864772777175	11.55357402249497	18.20587857570504	-8.178588952734509	-0.1717727273797599	4.884174681758302	134.0134979483459	0	0	15.45213889591851	-11.44176430986596	-2.961242446896412	10.50893875367509	103.0060837839232	0	0
